<?xml version="1.0" encoding="UTF-8" standalone="no"?>
<svg width="141px" height="52px" viewBox="0 0 141 52" version="1.1" xmlns="http://www.w3.org/2000/svg" xmlns:xlink="http://www.w3.org/1999/xlink" xmlns:sketch="http://www.bohemiancoding.com/sketch/ns">
    <!-- Generator: Sketch 3.2 (9961) - http://www.bohemiancoding.com/sketch -->
    <title>Artboard 1</title>
    <desc>Created with Sketch.</desc>
    <defs>
        <path id="path-1" d="M4.01252899,11.4340257 C4.0255628,11.1286367 4.05094444,10.7941061 4.09141787,10.4392958 C4.20237681,9.47063987 4.40697343,8.51374277 4.7215,7.64086174 C5.57658696,5.26693891 6.99435749,4.00976527 9.34267391,4.00976527 C11.6879034,4.00976527 13.0710314,5.23830868 13.8846159,7.56690032 C14.1749614,8.39819936 14.3624082,9.30925402 14.4611908,10.2358167 C14.4982343,10.5826174 14.5207005,10.912717 14.5313333,11.2181061 C14.5385362,11.4258457 14.5393937,11.5949003 14.5368213,11.7176013 C14.5364783,11.7348135 18.5128213,11.8873376 18.5128213,11.8873376 C18.5136787,11.865865 18.5145362,11.834508 18.5153937,11.7939486 C18.5256836,11.2871254 18.5025314,10.6170418 18.4193551,9.83754984 C18.2917609,8.64291961 18.0477198,7.45561736 17.6529324,6.32574598 C16.3404614,2.56905145 13.6126208,0.146389068 9.34267391,0.146389068 C5.07564251,0.146389068 2.32773671,2.58302572 0.965188406,6.36545338 C0.54244686,7.53946302 0.27834058,8.77414148 0.136512077,10.0125691 C0.0854057971,10.4599164 0.0533357488,10.8832347 0.0367004831,11.2751961 C0.0253816425,11.5424116 0.0224661836,11.7622508 0.024352657,11.9267042 C0.0248671498,11.9577203 0.0248671498,11.9577203 0.0252101449,11.9723762 L4.00343961,11.8840997 C4.00223913,11.7828714 4.0042971,11.6310289 4.01252899,11.4340257 L4.01252899,11.4340257 Z"></path>
        <path d="M1.02847101,0.00698713826 C0.460471014,0.00698713826 0,0.467286174 0,1.02847267 L0,17.9845531 C0,18.5488071 0.457384058,19.0060386 1.02847101,19.0060386 L21.871087,19.0060386 C22.439087,19.0060386 22.899558,18.54591 22.899558,17.9845531 L22.899558,1.02847267 C22.899558,0.464389068 22.4421739,0.00698713826 21.871087,0.00698713826 L1.02847101,0.00698713826 L1.02847101,0.00698713826 Z M11.6580628,16.176418 C15.5670072,16.176418 18.7361111,13.0996913 18.7361111,9.30448232 C18.7361111,5.50910289 15.5670072,2.43237621 11.6580628,2.43237621 C7.74894686,2.43237621 4.579843,5.50910289 4.579843,9.30448232 C4.579843,13.0996913 7.74894686,16.176418 11.6580628,16.176418 L11.6580628,16.176418 Z" id="path-3"></path>
        <path id="path-5" d="M0.0209227053,5.68207717 L1.26993961,5.68207717 L1.26993961,0.0228360129 L0.0209227053,0.0228360129 L0.0209227053,5.68207717 L0.0209227053,5.68207717 Z"></path>
        <path id="path-7" d="M0.0830048309,1.29705145 L5.37130435,1.29705145 L5.37130435,0.0558971061 L0.0830048309,0.0558971061 L0.0830048309,1.29705145 L0.0830048309,1.29705145 Z"></path>
    </defs>
    <g id="Page-1" stroke="none" stroke-width="1" fill="none" fill-rule="evenodd" sketch:type="MSPage">
        <g id="Artboard-1" sketch:type="MSArtboardGroup">
            <g id="logo" sketch:type="MSLayerGroup">
                <text id="Safe" sketch:type="MSTextLayer" font-family="Roboto Slab" font-size="39.3135768" font-weight="bold" letter-spacing="-0.0256" fill="#BBCCBB">
                    <tspan x="28.8365471" y="41.1537965">Sa</tspan>
                    <tspan x="74.2224742" y="41.1537965" letter-spacing="-2.76772198">f</tspan>
                    <tspan x="85.621461" y="41.1537965">e</tspan>
                </text>
                <text id="ly" sketch:type="MSTextLayer" font-family="Roboto Slab" font-size="39.3135768" font-style="condensed" font-weight="260" letter-spacing="-0.0256" fill="#BBCCBB">
                    <tspan x="107.069732" y="41.1537965">ly</tspan>
                </text>
                <g id="Group-4" transform="translate(2.057971, 13.122186)">
                    <mask id="mask-2" sketch:name="Clip 3" fill="white">
                        <use xlink:href="#path-1"></use>
                    </mask>
                    <g id="Clip-3"></g>
                    <path d="M0.00685990338,0.129517685 L18.528599,0.129517685 L18.528599,11.9906109 L0.00685990338,11.9906109 L0.00685990338,0.129517685 Z" id="Fill-2" fill="#399B24" sketch:type="MSShapeGroup" mask="url(#mask-2)"></path>
                </g>
                <g id="Group-7" transform="translate(0.000000, 23.688103)">
                    <mask id="mask-4" sketch:name="Clip 6" fill="white">
                        <use xlink:href="#path-3"></use>
                    </mask>
                    <g id="Clip-6"></g>
                    <path d="M-0.0137198068,-0.00681672026 L22.9120773,-0.00681672026 L22.9120773,19.0118328 L-0.0137198068,19.0118328 L-0.0137198068,-0.00681672026 Z" id="Fill-5" fill="#399B23" sketch:type="MSShapeGroup" mask="url(#mask-4)"></path>
                </g>
                <g id="Group-10" transform="translate(10.804348, 28.118971)">
                    <mask id="mask-6" sketch:name="Clip 9" fill="white">
                        <use xlink:href="#path-5"></use>
                    </mask>
                    <g id="Clip-9"></g>
                    <path d="M0.00685990338,0.0204501608 L1.28280193,0.0204501608 L1.28280193,5.68514469 L0.00685990338,5.68514469 L0.00685990338,0.0204501608 Z" id="Fill-8" fill="#399B24" sketch:type="MSShapeGroup" mask="url(#mask-6)"></path>
                </g>
                <g id="Group-13" transform="translate(10.804348, 32.720257)">
                    <mask id="mask-8" sketch:name="Clip 12" fill="white">
                        <use xlink:href="#path-7"></use>
                    </mask>
                    <g id="Clip-12"></g>
                    <path d="M0.0685990338,0.0409003215 L5.37816425,0.0409003215 L5.37816425,1.30881029 L0.0685990338,1.30881029 L0.0685990338,0.0409003215 Z" id="Fill-11" fill="#399B24" sketch:type="MSShapeGroup" mask="url(#mask-8)"></path>
                </g>
            </g>
        </g>
    </g>
</svg>