<?xml version="1.0" encoding="UTF-8" standalone="no"?>
<svg width="477px" height="163px" viewBox="0 0 477 163" version="1.1" xmlns="http://www.w3.org/2000/svg" xmlns:xlink="http://www.w3.org/1999/xlink" xmlns:sketch="http://www.bohemiancoding.com/sketch/ns">
    <!-- Generator: Sketch 3.2 (9961) - http://www.bohemiancoding.com/sketch -->
    <title>logo</title>
    <desc>Created with Sketch.</desc>
    <defs></defs>
    <g id="Page-1" stroke="none" stroke-width="1" fill="none" fill-rule="evenodd" sketch:type="MSPage">
        <g id="logo" sketch:type="MSArtboardGroup">
            <g id="Safely-+-Path-+-Path-+-Rectangle-2-+-Rectangle-3" sketch:type="MSLayerGroup" transform="translate(25.000000, 0.000000)">
                <text id="Safely" sketch:type="MSTextLayer" font-family="Roboto Slab" font-size="117.184727" font-weight="bold" letter-spacing="-3" fill="#034D01">
                    <tspan x="84.0727273" y="123">Safe</tspan>
                    <tspan x="312.164091" y="123" font-style="condensed" font-weight="260">ly</tspan>
                </text>
                <g id="Path-+-Path-+-Rectangle-2-+-Rectangle-3" transform="translate(0.000000, 33.684211)" fill="#147612" sketch:type="MSShapeGroup">
                    <path d="M17.6986056,33.3630063 C17.7363828,32.4667844 17.8102601,31.4853931 17.9286593,30.4441447 C18.251819,27.6021523 18.8484697,24.7950404 19.7652532,22.2338606 C22.2583554,15.2689851 26.3919008,11.5805036 33.2384558,11.5805036 C40.0760792,11.5805036 44.1084117,15.1846343 46.480374,22.0165783 C47.3271931,24.4556645 47.8732943,27.1286237 48.161652,29.8471342 C48.2696018,30.864838 48.3350913,31.8331614 48.3659134,32.7295109 C48.3868698,33.3389541 48.3895216,33.8347697 48.3822352,34.1949069 C48.3812164,34.2452601 59.97391,34.6926825 59.97391,34.6926825 C59.9763461,34.629608 59.9790637,34.537928 59.9814713,34.4189352 C60.0115626,32.9316564 59.9439713,30.9660014 59.7013485,28.6786597 C59.3295671,25.1736675 58.617884,21.6902469 57.4669843,18.3753199 C53.6403525,7.35350296 45.6877198,0.245377043 33.2384558,0.245377043 C20.7981235,0.245377043 12.7865641,7.39432216 8.81417326,18.4918244 C7.58125657,21.9361723 6.81130693,25.5586182 6.39809844,29.1925348 C6.24889365,30.5046999 6.15539964,31.7466803 6.10692961,32.8965785 C6.07386911,33.6809025 6.06529246,34.3256704 6.07110888,34.8084052 C6.07240558,34.8994219 6.07240558,34.8994219 6.07335286,34.9422933 L17.6718239,34.6831961 C17.6683285,34.3862556 17.6742554,33.9406886 17.6986056,33.3630063 Z" id="Path"></path>
                    <path d="M2.99839624,30.8363374 C1.34242772,30.8363374 0,32.1866323 0,33.8333022 L0,83.5819826 C0,85.2371605 1.33362895,86.5789474 2.99839624,86.5789474 L63.7652401,86.5789474 C65.4212086,86.5789474 66.7636364,85.2286525 66.7636364,83.5819826 L66.7636364,33.8333022 C66.7636364,32.1781243 65.4300074,30.8363374 63.7652401,30.8363374 L2.99839624,30.8363374 Z M33.9887603,78.2768565 C45.3857267,78.2768565 54.6247934,69.2499229 54.6247934,58.1146359 C54.6247934,46.9793489 45.3857267,37.9524153 33.9887603,37.9524153 C22.591794,37.9524153 13.3527273,46.9793489 13.3527273,58.1146359 C13.3527273,69.2499229 22.591794,78.2768565 33.9887603,78.2768565 Z" id="Path"></path>
                    <g id="Rectangle-2-+-Rectangle-3" transform="translate(31.560992, 43.882480)">
                        <rect id="Rectangle-2" x="0" y="0" width="3.64165289" height="16.6041817"></rect>
                        <rect id="Rectangle-3" transform="translate(7.890248, 15.418169) rotate(-270.000000) translate(-7.890248, -15.418169) " x="6.06942149" y="7.70908435" width="3.64165289" height="15.4181687"></rect>
                    </g>
                </g>
            </g>
        </g>
    </g>
</svg>